<svg xmlns="http://www.w3.org/2000/svg" width="598.7" height="325.32" viewBox="0 0 598.7 325.32"><g transform="translate(0.196)"><ellipse cx="293.73" cy="19.446" rx="293.73" ry="19.446" transform="translate(7.319 286.429)" fill="#f2f2f2"/><path d="M518.046,324.894c-47.857,0-82.217,30.7-82.217,102.345,0,81.194,34.361,102.686,82.217,102.686s84.264-23.539,84.264-102.686C602.31,342.634,565.9,324.894,518.046,324.894Zm.315,178.08c-33.147,0-50.464-19.446-50.464-75.683,0-49.621,18.026-75.788,51.172-75.788s51.173,17.188,51.173,75.788c0,54.819-18.735,75.683-51.881,75.683Z" transform="translate(-228.255 -231.897)" fill="#2f2e41"/><path d="M266.258,479.706H246.472V421.44A11.669,11.669,0,0,0,234.8,409.771h-4.636A11.669,11.669,0,0,0,218.5,421.44v58.267H162.686a6.662,6.662,0,0,1-5.89-9.774l59.07-111.8a11.669,11.669,0,0,0-5.335-16l-3.487-1.647a11.669,11.669,0,0,0-15.274,5.051L119.727,480.3a15.823,15.823,0,0,0-1.869,7.459h0a15.823,15.823,0,0,0,15.823,15.823H218.5v36.844a13.987,13.987,0,0,0,13.987,13.987h0a13.987,13.987,0,0,0,13.987-13.987V503.587h19.787a11.94,11.94,0,0,0,11.94-11.94h0a11.94,11.94,0,0,0-11.94-11.94Z" transform="translate(-87.341 -238.309)" fill="#6f66ff"/><path d="M924.254,479.706H904.467V421.44A11.669,11.669,0,0,0,892.8,409.771h-4.636a11.669,11.669,0,0,0-11.669,11.669v58.267H820.682a6.662,6.662,0,0,1-5.89-9.774l59.07-111.8a11.669,11.669,0,0,0-5.334-16l-3.487-1.647a11.669,11.669,0,0,0-15.274,5.051L777.724,480.3a15.823,15.823,0,0,0-1.869,7.459h0a15.823,15.823,0,0,0,15.823,15.823h84.816v36.844a13.987,13.987,0,0,0,13.987,13.987h0a13.987,13.987,0,0,0,13.987-13.987V503.587h19.787a11.94,11.94,0,0,0,11.94-11.94h0a11.94,11.94,0,0,0-11.941-11.94Z" transform="translate(-378.943 -238.309)" fill="#6f66ff"/><path d="M276.061,467.453H256.275V409.187a11.669,11.669,0,0,0-11.669-11.669h-4.636A11.669,11.669,0,0,0,228.3,409.187v58.267H172.488a6.662,6.662,0,0,1-5.89-9.774l59.07-111.8a11.669,11.669,0,0,0-5.335-16l-3.487-1.647a11.669,11.669,0,0,0-15.274,5.05L129.53,468.051a15.823,15.823,0,0,0-1.869,7.459h0a15.823,15.823,0,0,0,15.823,15.823H228.3v36.844a13.987,13.987,0,0,0,13.987,13.987h0a13.987,13.987,0,0,0,13.987-13.987V491.334h19.787A11.94,11.94,0,0,0,288,479.393h0a11.94,11.94,0,0,0-11.94-11.94Z" transform="translate(-91.685 -232.879)" fill="none" stroke="#3f3d56" stroke-miterlimit="10" stroke-width="1"/><path d="M942.634,467.453H922.847V409.187a11.669,11.669,0,0,0-11.669-11.669h-4.636a11.669,11.669,0,0,0-11.669,11.669v58.267H839.062a6.661,6.661,0,0,1-5.89-9.773l59.07-111.8a11.669,11.669,0,0,0-5.335-16l-3.487-1.647a11.669,11.669,0,0,0-15.274,5.05L796.1,468.051a15.822,15.822,0,0,0-1.869,7.459h0a15.823,15.823,0,0,0,15.823,15.823h84.816v36.844a13.987,13.987,0,0,0,13.987,13.987h0a13.987,13.987,0,0,0,13.987-13.987V491.334h19.787a11.94,11.94,0,0,0,11.94-11.94h0a11.94,11.94,0,0,0-11.941-11.94Z" transform="translate(-387.088 -232.879)" fill="none" stroke="#3f3d56" stroke-miterlimit="10" stroke-width="1"/><path d="M537.651,313.866c-47.857,0-82.217,30.7-82.217,102.345,0,81.194,34.361,102.686,82.217,102.686s84.264-23.539,84.264-102.686C621.915,331.606,585.508,313.866,537.651,313.866Zm.315,178.08c-33.147,0-50.464-19.446-50.464-75.683,0-49.62,18.026-75.788,51.173-75.788s51.172,17.188,51.172,75.788c0,54.819-18.735,75.683-51.881,75.683Z" transform="translate(-236.943 -227.01)" fill="none" stroke="#3f3d56" stroke-miterlimit="10" stroke-width="1"/><circle cx="7.184" cy="7.184" r="7.184" transform="translate(255.164 2.979)" fill="#2f2e41"/><ellipse cx="20.15" cy="26.107" rx="20.15" ry="26.107" transform="translate(259.719 0)" fill="#2f2e41"/><path d="M549.625,219.854c-10.094,0-18.454-9.617-19.921-22.165a33.956,33.956,0,0,0-.229,3.942c0,14.419,9.021,26.107,20.15,26.107s20.15-11.689,20.15-26.107a33.956,33.956,0,0,0-.229-3.942C568.079,210.237,559.719,219.854,549.625,219.854Z" transform="translate(-269.755 -175.525)" opacity="0.1"/><path d="M615.03,336.306c-.433,1.778-2.3,3.2-4.365,4.2-4.344,2.092-9.7,2.716-14.9,2.926a25.155,25.155,0,0,1-3.978-.074,11.436,11.436,0,0,1-6.822-3.136.936.936,0,0,1,.024-1.584c2.767-3.04,7.385-4.9,12.037-6.246,3.527-1.018,9.679-3.653,13.526-3.3C614.277,329.438,615.576,334.061,615.03,336.306Z" transform="translate(-294.158 -233.744)" fill="#3f3d56"/><path d="M615.03,336.306c-.433,1.778-2.3,3.2-4.365,4.2-4.344,2.092-9.7,2.716-14.9,2.926a25.155,25.155,0,0,1-3.978-.074,11.436,11.436,0,0,1-6.822-3.136.936.936,0,0,1,.024-1.584c2.767-3.04,7.385-4.9,12.037-6.246,3.527-1.018,9.679-3.653,13.526-3.3C614.277,329.438,615.576,334.061,615.03,336.306Z" transform="translate(-294.158 -233.744)" opacity="0.1"/><path d="M539.141,295.1a11.009,11.009,0,0,0-.668,8.394,14.666,14.666,0,0,0,4.917,6.959c5.621,4.506,13.357,5.126,20.561,5.063a158.506,158.506,0,0,0,18.88-1.294,22.573,22.573,0,0,0,6.126-1.422,9.39,9.39,0,0,0,5.254-5.3,6.462,6.462,0,0,0-1.745-7c-1.747-1.42-4.156-1.615-6.4-1.75l-12.856-.773a21.807,21.807,0,0,1,4.508-2.947c2.052-1.24,3.415-3.321,4.907-5.2a71.835,71.835,0,0,1,7.483-7.694,11.048,11.048,0,0,0,3.724,6.027c1.787,1.656,3.847,2.989,5.7,4.566,4.5,3.819,7.738,9,12.469,12.529a24.405,24.405,0,0,0,8.936-4.461l-1.839-3.331a2.194,2.194,0,0,0-.693-.865c-.52-.32-1.191-.155-1.8-.246-1.615-.242-2.321-2.107-2.955-3.612-1.74-4.133-5.072-7.339-7.917-10.8a54.573,54.573,0,0,1-5.566-8.2,28.044,28.044,0,0,0-3.128-5.013,7.055,7.055,0,0,0-5.089-2.662,9.8,9.8,0,0,0-4.852,1.772,128.332,128.332,0,0,0-13.158,8.964,30.443,30.443,0,0,1-6.954,4.552c-1.084.44-2.228.741-3.268,1.276a21.852,21.852,0,0,0-4.695,3.934A31.206,31.206,0,0,1,539.141,295.1Z" transform="translate(-273.506 -205.823)" fill="#3f3d56"/><path d="M575.2,235.783a13.241,13.241,0,0,1-.965,4.473,5.594,5.594,0,0,1-3.212,3.1,6.891,6.891,0,0,1-3.131.1,6.06,6.06,0,0,1-2.551-.869,5.439,5.439,0,0,1-2.026-3.755c-.219-1.446-.121-2.923-.261-4.379a23.894,23.894,0,0,0-.669-3.483c-.095-.38-.191-.759-.286-1.137s-.184-.757-.268-1.135c-.077-.356-.149-.713-.21-1.072-.051-.3-.1-.608-.13-.915a10.263,10.263,0,0,0-.45-2.679,8.135,8.135,0,0,0-.939-1.589c-.159-.228-.314-.456-.456-.692a3.28,3.28,0,0,1-.541-2.087,1.825,1.825,0,0,1,.082-.335c.014-.042.03-.084.047-.124a1,1,0,0,0,.685-.64,1.912,1.912,0,0,0-.082-.99,6.3,6.3,0,0,0-.534-1.274c-.147-.266-.647-.746-.65-1.051-.007-.613,1.191-1.107,1.677-1.349a9.353,9.353,0,0,1,4.787-.971,3.53,3.53,0,0,1,2.795,1.286,8.43,8.43,0,0,1,.68,2.768.818.818,0,0,0,.166.37.747.747,0,0,0,.412.189,2.533,2.533,0,0,0,.788.032h0a1.629,1.629,0,0,0,.207-.03,2.76,2.76,0,0,0,1.132-.489q.326-.087.657-.142l.026-.005c.878,2.77.992,5.74,1.71,8.561a21.973,21.973,0,0,1,.937,4.233c.005.063.007.128.009.193.011.464-.026.932-.007,1.395a3.893,3.893,0,0,0,.07.62,8.677,8.677,0,0,0,.293.971l.005.016c.033.1.065.205.091.308.019.075.037.149.051.224l0,.005A8.321,8.321,0,0,1,575.2,235.783Z" transform="translate(-282.688 -182.273)" fill="#fbbebe"/><circle cx="10.338" cy="10.338" r="10.338" transform="translate(269.882 14.718)" fill="#fbbebe"/><path d="M636.428,266.769a16.953,16.953,0,0,0-2.916-7.853q.4,2.392.806,4.782a1.79,1.79,0,0,1-1.875-.576,5.757,5.757,0,0,1-.983-1.824,37.569,37.569,0,0,0-4.571-8.205c-6.581-.548-13.087-3.277-18.874-6.457s-11.207-6.989-16.919-10.3a24.269,24.269,0,0,0-3.087-1.577c-1.787-.717-3.793-1.088-5.488-1.931-.114-.056-.228-.116-.34-.177a7,7,0,0,1-1.083-.727,5.757,5.757,0,0,1-.519-.477,11.332,11.332,0,0,1-1.982-3.315c-.909-2.011-1.233-4.438-2.141-6.45a6.239,6.239,0,0,1,1.393-.983h0c.074-.039.147-.075.223-.11a6.646,6.646,0,0,1,1.116-.408q.326-.087.657-.142l.026-.005a6.44,6.44,0,0,1,3.057.242,14.14,14.14,0,0,1,3.865,2.379,63.485,63.485,0,0,1,5.651,4.482c1,.957,1.91,2.008,2.984,2.877a23.469,23.469,0,0,0,2.816,1.866l17.437,10.385c1.968,1.172,3.937,2.344,5.861,3.585,2.923,1.885,5.74,3.928,8.556,5.97q2.489,1.8,4.976,3.608a5.416,5.416,0,0,1,1.41,1.3,4.717,4.717,0,0,1,.626,1.912A17.477,17.477,0,0,1,636.428,266.769Z" transform="translate(-290.577 -185.388)" fill="#fbbebe"/><path d="M566.882,246.744c-.7,3.128-3.858,5.018-5.51,7.766-2.054,3.41-1.216,7.373-.445,11.279l-4.228,3.643c-.778.668-1.556,1.339-2.393,1.929a31.931,31.931,0,0,1-3.82,2.194l-3.743,1.926a17.892,17.892,0,0,1-3.664,1.552,14.119,14.119,0,0,1-7.5-.541,3.391,3.391,0,0,1-.82-.335,1.333,1.333,0,0,1-.389-.352,2.177,2.177,0,0,1-.247-1.414,66.459,66.459,0,0,1,2.245-12.078,35.6,35.6,0,0,1,5.158-12.656,38.07,38.07,0,0,1,4.415-6.411,10.289,10.289,0,0,0,2.047-2.639c.622-1.419.382-3.047.508-4.592a9.55,9.55,0,0,1,.909-3.345v0a9.516,9.516,0,0,1,.971-1.6l.51,1.186q.168.389.333.776.216.5.428,1l1.223,2.847a12.021,12.021,0,0,0,1.857,3.31,3.619,3.619,0,0,0,6.194-.475,11.838,11.838,0,0,0,1.265-3.348,10.7,10.7,0,0,0,.14-4.363,51.57,51.57,0,0,0-2.471-8.23,8.319,8.319,0,0,1-.6-2.712,1.857,1.857,0,0,1,.032-.312l.016-.081a6.649,6.649,0,0,1,1.116-.408q.326-.087.657-.142,1.138,6.161,2.28,12.321c.018.1.037.193.054.291.109.589.219,1.177.342,1.764.11.533.23,1.064.363,1.591l.005.016c.046.179.093.356.142.533l0,.005c.135.484.286.964.456,1.437C565.746,240.914,567.543,243.784,566.882,246.744Z" transform="translate(-271.802 -185.459)" fill="#6f66ff"/><path d="M668.317,339.022a3.666,3.666,0,0,0,.34,1.75c.647,1.182,2.2,1.451,3.543,1.562a104.9,104.9,0,0,0,23.535-.717,2.721,2.721,0,0,0,1.2-.372c1.108-.777.425-2.67-.785-3.276s-2.646-.46-3.973-.723a12.516,12.516,0,0,1-3.719-1.613q-4.038-2.32-7.959-4.838c-1.556-1-3.393-2.066-5.145-1.473C670.6,330.929,668.286,333.9,668.317,339.022Z" transform="translate(-331.283 -233.785)" fill="#3f3d56"/><path d="M538.466,233.757v0c-.012.074-.024.145-.04.217-.019.119-.042.24-.065.359-.217,1.113-.484,2.22-.79,3.32-.841,3.04-1.968,6.031-3.086,8.978l-9,23.708c-.757,1.99-1.512,3.983-2.372,5.933-.287.65-.583,1.305-.878,1.968a27.377,27.377,0,0,0-2.4,7.341,15.286,15.286,0,0,0-.107,5.034,5.164,5.164,0,0,0,2.912,3.881c.767.3,1.866.7,1.656,1.5-.114.438-.612.652-1.058.725a4.072,4.072,0,0,1-3.322-.957c-.839-.745-1.484-1.9-2.6-2.027a4.4,4.4,0,0,0-2.192.7c-2.888,1.319-6.252.4-9.285-.541a3.258,3.258,0,0,1,2.7-2.283,21.815,21.815,0,0,1,3.741-.105,1.955,1.955,0,0,0,1.137-.293,2.064,2.064,0,0,0,.613-1.048,43.967,43.967,0,0,0,1.789-7.32c.4-2.6.571-5.237,1.146-7.8.447-2,1.137-3.942,1.729-5.908a125.129,125.129,0,0,0,2.818-12.293,43.467,43.467,0,0,0,.794-5.216c.1-1.454.053-2.916.193-4.365a33.908,33.908,0,0,1,1.176-5.567q.8-2.978,1.607-5.952c.794-2.935,1.645-5.984,3.657-8.265a7.774,7.774,0,0,1,5.584-2.667,5.5,5.5,0,0,1,1.186.128c.065.016.13.032.194.049a4.808,4.808,0,0,1,1.211.5c.62-.394.936-.256,1.347.352a3.883,3.883,0,0,1,.491,2.113A29.19,29.19,0,0,1,538.466,233.757Z" transform="translate(-259.279 -187.545)" fill="#fbbebe"/><path d="M561.973,235.915l-.026.026-.142.142L560.4,237.49l-.69-2.9-2.367-9.942a5.5,5.5,0,0,1,1.186.128,1.83,1.83,0,0,1,.082-.335l.112.384.8,2.73,1.519,5.183.251.853v0Z" transform="translate(-282.104 -187.38)" fill="#6f66ff"/><path d="M563.863,182.51a7.006,7.006,0,0,1-2.061,4.954,6.857,6.857,0,0,1-.757.655,6.976,6.976,0,0,1-4.2,1.406h-8.406a7.011,7.011,0,0,1,0-14.021h8.406A7.032,7.032,0,0,1,563.863,182.51Z" transform="translate(-275.055 -165.692)" fill="#2f2e41"/><circle cx="7.184" cy="7.184" r="7.184" transform="translate(289.506 2.979)" fill="#2f2e41"/><path d="M595.345,163.234c-.088,0-.175,0-.263.007a7.182,7.182,0,0,1,0,14.354c.087,0,.175.007.263.007a7.184,7.184,0,1,0,0-14.368Z" transform="translate(-298.83 -160.255)" opacity="0.1"/><path d="M528.478,163.234c.088,0,.175,0,.263.007a7.182,7.182,0,0,0,0,14.354c-.087,0-.175.007-.263.007a7.184,7.184,0,1,1,0-14.368Z" transform="translate(-266.13 -160.255)" opacity="0.1"/><path d="M563.286,198.159a6.976,6.976,0,0,1-4.2,1.406h-8.406a6.976,6.976,0,0,1-4.2-1.406Z" transform="translate(-277.295 -175.733)" opacity="0.1"/><path d="M674.14,289.259s1.811,5.218,3.469,3.829l-1.321-6.821Z" transform="translate(-333.866 -214.779)" fill="#fbbebe"/><path d="M1063.845,559.542a11.589,11.589,0,1,0,1.543-22.226l.29,5.965-2.822-5.112a11.546,11.546,0,0,0-5.949,6.528,11.371,11.371,0,0,0-.667,3.135A11.587,11.587,0,0,0,1063.845,559.542Z" transform="translate(-503.187 -325.922)" fill="#57b894"/><path d="M1093.262,620.8c-1-5.073,3.32-9.57,7.584-12.493s9.246-5.8,10.7-10.756c2.091-7.13-4.137-13.659-8.985-19.29a69.779,69.779,0,0,1-9.2-13.674,18.824,18.824,0,0,1-2.2-6.218c-.382-3.16.633-6.305,1.656-9.32q5.111-15.063,10.93-29.874" transform="translate(-518.639 -317.995)" fill="none" stroke="#3f3d56" stroke-miterlimit="10" stroke-width="1"/><path d="M1064.695,556.784a11.589,11.589,0,1,0,1.543-22.226l.29,5.965-2.822-5.112a11.545,11.545,0,0,0-5.949,6.528,11.357,11.357,0,0,0-.667,3.135A11.587,11.587,0,0,0,1064.695,556.784Z" transform="translate(-503.564 -324.7)" fill="none" stroke="#3f3d56" stroke-miterlimit="10" stroke-width="1"/><path d="M1091.9,509.4a11.575,11.575,0,0,1,8.341-7.349l.954,5.671,1.769-5.956A11.588,11.588,0,1,1,1091.9,509.4Z" transform="translate(-518.693 -310.28)" fill="#57b894"/><path d="M1093.036,505.719a11.575,11.575,0,0,1,8.341-7.349l.954,5.671,1.769-5.956a11.588,11.588,0,1,1-11.065,7.634Z" transform="translate(-519.198 -308.65)" fill="none" stroke="#3f3d56" stroke-miterlimit="10" stroke-width="1"/><path d="M1101.96,607.594a11.588,11.588,0,0,0,10.256-20.616l-1.359,4.577-.964-5.737-.03-.011a11.588,11.588,0,1,0-7.9,21.787Z" transform="translate(-520.076 -347.216)" fill="#57b894"/><path d="M1102.96,603.869a11.588,11.588,0,0,0,10.256-20.616l-1.359,4.577-.964-5.737-.029-.011a11.588,11.588,0,0,0-7.9,21.788Z" transform="translate(-520.519 -345.565)" fill="none" stroke="#3f3d56" stroke-miterlimit="10" stroke-width="1"/><path d="M1086.238,649.236a11.583,11.583,0,1,0,2.233-9.075l5.163,7.771-7.055-4.125A11.481,11.481,0,0,0,1086.238,649.236Z" transform="translate(-516.415 -369.613)" fill="#57b894"/><path d="M1087.088,646.479a11.583,11.583,0,1,0,2.233-9.075l5.163,7.771-7.055-4.125A11.479,11.479,0,0,0,1087.088,646.479Z" transform="translate(-516.792 -368.391)" fill="none" stroke="#3f3d56" stroke-miterlimit="10" stroke-width="1"/><path d="M68.07,616.377a7.614,7.614,0,1,0,1.014-14.6l.191,3.919-1.854-3.359a7.585,7.585,0,0,0-3.909,4.289,7.465,7.465,0,0,0-.438,2.06,7.613,7.613,0,0,0,5,7.694Z" transform="translate(-63.054 -354.527)" fill="#57b894"/><path d="M87.4,656.624c-.655-3.333,2.182-6.288,4.983-8.208s6.075-3.808,7.031-7.067c1.374-4.684-2.718-8.974-5.9-12.674a45.837,45.837,0,0,1-6.045-8.984,12.367,12.367,0,0,1-1.446-4.085,14.1,14.1,0,0,1,1.088-6.123q3.358-9.9,7.181-19.628" transform="translate(-73.206 -349.319)" fill="none" stroke="#3f3d56" stroke-miterlimit="10" stroke-width="1"/><path d="M68.633,614.565a7.614,7.614,0,1,0,1.014-14.6l.191,3.919-1.854-3.358a7.585,7.585,0,0,0-3.909,4.289,7.467,7.467,0,0,0-.438,2.06,7.613,7.613,0,0,0,5,7.694Z" transform="translate(-63.304 -353.724)" fill="none" stroke="#3f3d56" stroke-miterlimit="10" stroke-width="1"/><path d="M86.5,583.431a7.606,7.606,0,0,1,5.48-4.828l.627,3.726,1.162-3.913a7.613,7.613,0,1,1-7.27,5.016Z" transform="translate(-73.243 -344.249)" fill="#57b894"/><path d="M87.254,581.015a7.605,7.605,0,0,1,5.48-4.828l.627,3.726L94.524,576a7.613,7.613,0,1,1-7.27,5.016Z" transform="translate(-73.576 -343.179)" fill="none" stroke="#3f3d56" stroke-miterlimit="10" stroke-width="1"/><path d="M93.117,647.949A7.613,7.613,0,0,0,99.855,634.4l-.893,3.007-.633-3.77-.019-.007a7.614,7.614,0,1,0-5.193,14.315Z" transform="translate(-74.152 -368.517)" fill="#57b894"/><path d="M93.767,645.5a7.613,7.613,0,0,0,6.739-13.545l-.893,3.007-.633-3.77-.019-.007A7.614,7.614,0,1,0,93.767,645.5Z" transform="translate(-74.44 -367.433)" fill="none" stroke="#3f3d56" stroke-miterlimit="10" stroke-width="1"/><path d="M82.783,675.308a7.61,7.61,0,1,0,1.467-5.962l3.392,5.106-4.635-2.71a7.542,7.542,0,0,0-.224,3.566Z" transform="translate(-71.745 -383.232)" fill="#57b894"/><path d="M83.346,673.5a7.61,7.61,0,1,0,1.467-5.962l3.392,5.106-4.635-2.71A7.543,7.543,0,0,0,83.346,673.5Z" transform="translate(-71.995 -382.429)" fill="none" stroke="#3f3d56" stroke-miterlimit="10" stroke-width="1"/><ellipse cx="9.466" cy="12.25" rx="9.466" ry="12.25" transform="translate(258.341 165.444)" fill="#2f2e41"/><ellipse cx="9.466" cy="12.25" rx="9.466" ry="12.25" transform="translate(309.848 165.723)" fill="#2f2e41"/><path d="M596.024,534.523c0,5.535-7.729,10.023-17.262,10.023S561.5,540.058,561.5,534.523c0-4.794,5.8-8.8,13.542-9.784a27.9,27.9,0,0,1,3.72-.24,28.233,28.233,0,0,1,6.2.668C591.43,526.61,596.024,530.258,596.024,534.523Z" transform="translate(-283.948 -320.356)" fill="#2f2e41"/><ellipse cx="9.466" cy="12.25" rx="9.466" ry="12.25" transform="translate(260.569 162.66)" fill="none" stroke="#3f3d56" stroke-miterlimit="10" stroke-width="1"/><ellipse cx="9.466" cy="12.25" rx="9.466" ry="12.25" transform="translate(312.076 162.939)" fill="none" stroke="#3f3d56" stroke-miterlimit="10" stroke-width="1"/><ellipse cx="17.262" cy="10.023" rx="17.262" ry="10.023" transform="translate(279.779 201.36)" fill="none" stroke="#3f3d56" stroke-miterlimit="10" stroke-width="1"/><path d="M595.579,525.782a2.749,2.749,0,0,1-.735,1.889,2.416,2.416,0,0,1-1.771.784H587.5A2.6,2.6,0,0,1,585,525.782a2.731,2.731,0,0,1,.457-1.526,26.186,26.186,0,0,1,3.72-.255,26.546,26.546,0,0,1,6.2.713A2.823,2.823,0,0,1,595.579,525.782Z" transform="translate(-294.361 -320.134)" fill="#fff"/><circle cx="2.784" cy="2.784" r="2.784" transform="translate(267.251 168.785)" fill="#fff"/><circle cx="2.784" cy="2.784" r="2.784" transform="translate(319.036 168.785)" fill="#fff"/><circle cx="2.784" cy="2.784" r="2.784" transform="translate(321.82 194.957)" fill="#6f66ff" opacity="0.3"/><circle cx="2.784" cy="2.784" r="2.784" transform="translate(253.887 194.957)" fill="#6f66ff" opacity="0.3"/></g></svg>