<svg width="82" height="78" viewBox="0 0 82 78" fill="none" xmlns="http://www.w3.org/2000/svg">
<path fill-rule="evenodd" clip-rule="evenodd" d="M44.0116 70.0358C60.5689 70.0358 73.9902 71.6825 73.9902 73.7133C73.9902 75.7434 60.5689 77.3901 44.0116 77.3901C27.4543 77.3901 14.0312 75.7434 14.0312 73.7133C14.0312 71.6825 27.4543 70.0358 44.0116 70.0358Z" fill="#C1C9D9"/>
<path d="M54.0813 43.0435C54.6043 46.4004 56.5935 51.1956 58.5676 54.0518C59.5109 54.3148 60.0507 54.0453 60.3449 53.092C60.5434 52.4471 60.5854 51.5912 60.4711 50.5964C60.1348 47.6657 58.4583 43.7786 55.4467 40.5981C53.4642 39.5979 53.8392 41.4997 54.0813 43.0435ZM57.0879 55.5287C54.8952 52.4972 52.6336 47.1052 52.0484 43.3579C51.8601 42.1571 51.8382 41.0933 52.0316 40.2738C52.605 37.8369 54.6917 37.8554 56.5532 38.8458C56.6759 38.9116 56.7802 38.9982 56.8642 39.0988C60.2491 42.637 62.1374 47.0327 62.5191 50.363C62.6654 51.6324 62.5965 52.777 62.3123 53.6976C61.6111 55.9679 59.7245 56.685 57.5688 55.8939C57.367 55.8199 57.2039 55.6904 57.0879 55.5287Z" fill="#1C1D29"/>
<path fill-rule="evenodd" clip-rule="evenodd" d="M57.9238 54.9254C54.035 49.5469 49.9154 36.4815 56.0696 39.7574C62.7059 46.6454 63.3381 56.9133 57.9238 54.9254Z" fill="#384357"/>
<path fill-rule="evenodd" clip-rule="evenodd" d="M53.386 44.7734C52.4302 40.8903 52.7986 38.0172 56.0693 39.7574C57.2624 40.9943 58.258 42.34 59.0628 43.7042C57.3288 44.1733 55.4105 44.5292 53.386 44.7734Z" fill="#263042"/>
<path d="M37.5265 43.7021C36.941 47.4499 34.6788 52.8414 32.4868 55.8729C31.3282 57.4852 28.0035 56.4443 27.2622 54.0424C26.9779 53.1211 26.9091 51.9773 27.0543 50.7076C27.438 47.3774 29.3257 42.9816 32.7115 39.4435C32.794 39.3423 32.8995 39.2558 33.0218 39.1905C34.8836 38.2001 36.9701 38.1816 37.5433 40.6184C37.7359 41.4374 37.7129 42.5018 37.5265 43.7021ZM35.4935 43.3876C35.7335 41.8444 36.1095 39.942 34.127 40.9427C31.1157 44.1233 29.4404 48.0103 29.1026 50.9411C28.9895 51.9354 29.0307 52.7918 29.2294 53.4367C30.8574 58.7144 35.2734 44.7959 35.4935 43.3876Z" fill="#1C1D29"/>
<path fill-rule="evenodd" clip-rule="evenodd" d="M31.6506 55.2707C35.5401 49.8921 39.6605 36.8268 33.5068 40.1026C26.8694 46.9907 26.2378 57.2579 31.6506 55.2707Z" fill="#384357"/>
<path fill-rule="evenodd" clip-rule="evenodd" d="M36.1875 45.1182C37.1436 41.2355 36.7746 38.3618 33.5052 40.1025C32.3127 41.3395 31.3154 42.6852 30.5117 44.0494C32.244 44.5179 34.1639 44.8744 36.1875 45.1182Z" fill="#263042"/>
<path fill-rule="evenodd" clip-rule="evenodd" d="M77.1512 24.1402C72.8811 25.9413 69.3793 22.4898 66.2174 16.7173C65.6474 17.6021 65.0755 19.721 65.9501 21.2338C67.9311 24.6616 73.1555 29.4012 76.4484 28.5687C76.305 27.1674 76.6024 26.0855 77.1512 24.1402Z" fill="#1C1D29"/>
<path fill-rule="evenodd" clip-rule="evenodd" d="M79.3985 13.4608C75.891 16.4141 70.7293 12.8062 65.9031 18.1543C64.7262 19.4591 65.198 21.6396 66.1095 22.9255C70.1713 14.3419 75.6757 21.7186 81.0203 18.8959C80.0533 17.4393 79.429 15.4862 79.3985 13.4608Z" fill="#1C1D29"/>
<path d="M33.0705 41.4973C36.8682 37.5527 51.2663 37.4493 55.6041 40.1744C56.2322 40.5287 56.5387 42.4245 56.7182 43.1406C58.1979 49.0329 58.6974 54.1263 58.308 60.5152C58.1878 62.4901 57.883 62.0025 59.7488 62.5597L63.0656 63.549C63.7208 63.7448 64.5572 63.8712 64.5471 64.7727L64.4353 72.8215C64.4404 72.9233 64.4269 73.0266 64.3998 73.1301C64.1289 74.1057 63.2654 73.8848 62.5695 73.6911C44.9934 68.7986 43.2766 68.3213 26.3286 73.7641C25.5836 74.0019 24.7726 73.7754 24.7624 72.8677L24.6524 64.769C24.6236 64.3108 24.9081 63.8739 25.3652 63.7275C25.8308 63.5761 31.2589 61.8626 31.2572 61.8119C31.2403 61.6117 31.2217 61.3673 31.2149 60.9696C31.1624 57.2231 31.1895 51.3259 31.8363 46.5531C31.948 45.7178 32.4695 42.1225 33.0705 41.4973ZM34.7162 42.7695C33.2686 47.4694 33.2009 55.9721 33.272 60.9451C33.2991 62.8993 33.7359 63.3661 31.3791 63.9472L26.718 65.4536L26.8009 71.4525C43.0869 66.2681 45.3303 66.7568 62.3968 71.5063L62.4798 65.5264C60.8104 65.028 58.9734 64.5752 57.3446 63.9946C55.4991 63.3368 56.1527 61.9937 56.2525 60.3944C56.6657 53.5995 56.0409 48.2824 54.2191 41.7509C50.4283 39.775 38.0161 39.7587 34.7162 42.7695Z" fill="#1C1D29"/>
<path fill-rule="evenodd" clip-rule="evenodd" d="M33.8112 42.2113C32.7958 45.214 32.1244 52.6908 32.2408 60.9572C32.2628 62.4601 32.6389 62.5652 31.2726 62.8993L25.6777 64.7075L25.7891 72.8552C43.4188 67.184 44.9504 67.7199 63.405 72.8552L63.5163 64.7608L58.1221 63.1507C56.7744 62.8214 57.1708 62.2197 57.2788 60.4548C57.7544 52.6135 56.9313 47.5587 55.0961 41.0718C51.5084 38.7428 37.4326 38.4483 33.8112 42.2113Z" fill="#384357"/>
<path fill-rule="evenodd" clip-rule="evenodd" d="M33.8111 42.2113C33.5896 42.867 33.3846 43.7448 33.1992 44.8026C40.1463 46.1635 49.1357 45.9931 55.963 44.3602C55.7055 43.2925 55.4168 42.2036 55.0952 41.0718C51.5077 38.7427 37.4331 38.4483 33.8111 42.2113Z" fill="#263042"/>
<path d="M38.9995 39.0166C39.3455 38.929 39.7283 39.0661 39.9404 39.385C41.84 42.2435 44.497 44.6983 47.1828 46.8412C47.3519 46.976 47.6709 47.1915 47.808 47.3716C48.5465 48.343 46.7841 49.2321 46.0967 49.7502C45.4588 50.2296 43.8224 51.9894 42.9723 51.1912C39.8735 48.2967 36.9436 45.206 34.2977 41.8904C33.9038 41.3956 33.4684 40.611 34.3328 40.2263C35.5274 39.6984 37.7826 39.2446 38.9995 39.0166ZM38.8431 40.8085C37.9325 40.9898 37.0282 41.1922 36.1382 41.4446C38.4444 44.276 40.9532 46.9292 43.6039 49.4411L45.7139 47.8549C43.1908 45.8044 40.7187 43.476 38.8431 40.8085Z" fill="#1C1D29"/>
<path fill-rule="evenodd" clip-rule="evenodd" d="M39.2242 39.8535C37.9045 40.1 35.6965 40.5745 34.6973 41.0169C37.3874 44.4293 40.3662 47.5898 43.556 50.5681C44.744 49.674 45.9337 48.78 47.1233 47.8859C43.9145 45.3691 41.1387 42.7315 39.2242 39.8535Z" fill="#D62727"/>
<path fill-rule="evenodd" clip-rule="evenodd" d="M34.9531 41.3379C36.0977 42.7755 37.2957 44.1685 38.5392 45.522C40.4829 45.6797 42.4942 45.7412 44.5007 45.7064C42.4157 43.8579 40.6101 41.9304 39.2441 39.8816C37.5579 40.2059 36.0616 40.6859 34.9531 41.3379Z" fill="#961818"/>
<path d="M31.3876 57.8199C31.3711 57.4837 31.5542 57.1538 31.8758 56.9983C40.0564 53.0482 47.16 48.5192 53.3927 41.8254C54.1926 40.9657 53.9799 40.9749 55.2944 40.9688C55.6803 40.9564 56.0399 41.2044 56.152 41.592C56.4637 42.6596 56.6765 43.6989 56.881 44.7008C57.0014 45.2918 57.4171 46.3131 56.8959 46.8001C49.7181 53.5255 41.4171 58.0332 32.6477 62.3049C32.077 62.6103 31.3711 62.2021 31.3711 61.5405C31.3711 60.3002 31.3843 59.0601 31.3876 57.8199ZM33.1128 58.3212C33.1095 58.9311 33.1062 59.5411 33.1045 60.1512C41.1202 56.2065 48.7433 51.9713 55.3587 45.8729C55.1509 44.8928 54.9678 43.9085 54.7254 42.9355C48.4629 49.6799 41.328 54.3133 33.1128 58.3212Z" fill="#1C1D29"/>
<path fill-rule="evenodd" clip-rule="evenodd" d="M32.2531 57.7774C32.2531 57.7828 32.2531 57.7883 32.2531 57.7937C32.2481 59.1601 32.2383 60.1745 32.2383 61.5403C41.0109 57.2676 49.1249 52.9002 56.3075 46.1699C56.002 44.7964 55.7589 43.3266 55.3237 41.8329C55.0691 41.834 54.8145 41.8345 54.5599 41.8362C47.6942 49.4 40.1289 53.9731 32.2531 57.7774Z" fill="#D62727"/>
<path fill-rule="evenodd" clip-rule="evenodd" d="M55.9332 44.368C55.8611 44.0191 55.7856 43.6665 55.7052 43.3111C55.5806 42.8248 55.4494 42.3329 55.3116 41.8332L54.562 41.8365C53.4828 43.025 52.3855 44.1492 51.2734 45.2141C52.8989 44.9997 54.4653 44.7178 55.9332 44.368Z" fill="#961818"/>
<path fill-rule="evenodd" clip-rule="evenodd" d="M31.7758 58.8181C31.7659 59.9227 31.756 61.2695 31.7461 62.3741C40.0676 64.4169 48.7129 64.425 57.6852 61.6487C57.7479 60.7672 57.7529 58.899 57.8157 58.0175C49.9286 60.0696 40.7845 60.7883 31.7758 58.8181Z" fill="#1C1D29"/>
<path d="M66.7526 22.8029C66.904 16.175 65.8907 9.51884 64.4231 7.68171C56.3935 -0.0208778 31.1107 0.383419 23.341 8.35003C21.9387 10.2448 21.1439 16.9183 21.5086 23.5278C21.7994 28.8045 22.842 33.9458 24.9238 36.4086C31.5271 42.5338 57.3363 42.1174 63.7452 35.7893C65.753 33.2586 66.6305 28.0852 66.7526 22.8029ZM66.9316 7.87878C68.2082 11.0071 69.022 16.9951 68.8878 22.8449C68.7794 27.5954 68.1032 32.3564 66.5135 35.494C65.5225 37.4492 64.485 38.2729 62.4806 39.3292C53.0574 44.2936 31.7439 44.1854 24.2425 38.6175C23.3582 37.9612 22.9917 37.5144 22.4102 36.5377C20.5813 33.4643 19.6453 28.5787 19.3718 23.6454C19.0414 17.6644 19.7021 11.5055 20.9323 8.40217C21.4364 7.12888 21.8458 6.73113 22.8644 5.89087C31.8523 -1.51516 54.6093 -2.0179 64.3147 4.83633C65.6773 5.79845 66.3053 6.3437 66.9316 7.87878Z" fill="#1C1D29"/>
<path fill-rule="evenodd" clip-rule="evenodd" d="M65.22 6.96691C68.1444 10.5023 69.4748 30.3969 64.541 36.5046C57.7806 43.2898 31.1281 43.7186 24.1522 37.1549C19.0255 31.2087 19.7148 11.2821 22.5237 7.65475C30.6628 -0.795059 56.8138 -1.21569 65.22 6.96691Z" fill="#384357"/>
<path fill-rule="evenodd" clip-rule="evenodd" d="M44.428 41.8356C36.0478 41.97 27.6408 40.4366 24.1531 37.1542C19.0251 31.2087 19.7142 11.282 22.5254 7.65404C26.6833 3.33614 35.547 1.11586 44.3432 1.0686C38.0773 1.8559 31.9573 3.74093 27.0381 6.53086C24.6334 7.89506 23.9852 8.21553 23.2443 10.9968C21.2587 18.4649 21.9399 26.537 23.9506 32.9152C24.8422 35.7388 25.0965 36.5316 27.6942 37.7979C32.4235 40.1029 38.0679 41.1554 44.428 41.8356Z" fill="#697791"/>
<path fill-rule="evenodd" clip-rule="evenodd" d="M65.2223 6.96707C68.1467 10.5025 69.4771 30.3976 64.5433 36.5048C63.2181 37.8348 61.126 38.9191 58.5721 39.7561C66.2097 29.9406 66.7129 10.6647 53.3867 1.82805C58.324 2.72966 62.6218 4.43618 65.2223 6.96707Z" fill="#263042"/>
<path d="M57.0431 30.3371C61.8124 28.1642 65.5036 24.6892 66.7639 19.9397C50.3688 24.5494 37.8765 24.7501 21.3404 20.6707C22.752 25.376 26.5516 28.7302 31.3896 30.7473C39.1075 33.9661 49.4318 33.8024 57.0431 30.3371ZM68.6878 19.3658C67.5616 25.2002 63.3305 29.3946 57.7686 31.9272C49.7223 35.5909 38.8788 35.7672 30.7191 32.3647C24.9079 29.9415 20.5582 25.7608 19.3942 19.684C19.3031 19.2094 19.5077 18.7002 19.9822 18.6094C20.1352 18.5799 20.2865 18.5925 20.4241 18.6388C37.8335 23.1085 50.4204 22.8962 67.6751 17.8605C68.7772 17.5411 68.8219 18.679 68.6878 19.3658Z" fill="#1C1D29"/>
<path fill-rule="evenodd" clip-rule="evenodd" d="M67.9187 18.7002C64.7774 38.5382 23.9236 39.196 20.1465 19.4691C37.8768 24.0291 50.3443 23.8284 67.9187 18.7002Z" fill="#263042"/>
<path fill-rule="evenodd" clip-rule="evenodd" d="M61.2598 28.9277C52.2184 35.3662 36.3718 35.6214 27.1299 29.4774C25.4611 27.5624 24.257 24.0274 25.4021 20.7124C41.3868 23.3991 45.9471 24.0498 62.213 20.7473C63.0718 23.2902 61.8778 27.6701 61.2598 28.9277Z" fill="#FACF89"/>
<path fill-rule="evenodd" clip-rule="evenodd" d="M25.0309 24.6464C24.8628 23.3769 24.9485 22.0279 25.4024 20.7126C41.3849 23.3992 45.9475 24.0501 62.2123 20.7475C62.6007 21.8963 62.5687 23.4204 62.362 24.8625C49.0777 28.0099 36.624 27.9789 25.0309 24.6464Z" fill="#F5986A"/>
<path d="M66.4264 15.6398C51.308 19.6904 36.7226 19.7301 21.3189 17.6216C21.2484 18.1734 21.1899 18.7267 21.1435 19.2812C36.1518 24.4737 51.8462 23.7308 66.9938 19.5402C66.8648 18.2343 66.6843 16.9267 66.4264 15.6398ZM68.4535 17.0856C68.5962 18.0396 68.7149 19.0461 68.8025 20.0812C68.8369 20.4914 68.5515 20.856 68.1457 20.9536C59.4423 23.419 51.069 24.6462 43.0344 24.606C34.974 24.5645 27.2644 23.2465 19.9124 20.6221C18.8069 20.226 19.5823 17.3462 19.7009 16.5588C19.8213 15.7528 21.1521 15.9178 21.6713 15.9879C37.1198 18.0896 51.6639 18.0194 66.8476 13.7967C68.2764 13.4033 68.3349 16.2965 68.4535 17.0856Z" fill="#1C1D29"/>
<path fill-rule="evenodd" clip-rule="evenodd" d="M67.0914 14.5942C67.4667 16.1864 67.7546 18.0942 67.9295 20.1464C50.6561 25.046 34.7314 25.0243 20.2207 19.8438C20.3013 18.725 20.4178 17.6589 20.5669 16.6762C35.2696 18.7565 50.4384 19.225 67.0914 14.5942Z" fill="#1C1D29"/>
<path fill-rule="evenodd" clip-rule="evenodd" d="M35.3046 33.2162C37.2039 33.2472 38.7746 31.3426 38.813 28.963C38.8514 26.5834 37.3436 24.6297 35.4427 24.5989C33.5434 24.5683 31.9712 26.4729 31.9343 28.852C31.8959 31.2322 33.4037 33.1856 35.3046 33.2162Z" fill="#1C1D29"/>
<path fill-rule="evenodd" clip-rule="evenodd" d="M36.2766 31.8612C37.0023 31.8733 37.6028 31.1457 37.6165 30.2369C37.6318 29.3276 37.0558 28.5815 36.33 28.5701C35.6043 28.5587 35.0038 29.2857 34.9885 30.195C34.9748 31.1037 35.5508 31.8497 36.2766 31.8612Z" fill="white"/>
<path fill-rule="evenodd" clip-rule="evenodd" d="M52.0477 33.2164C53.948 33.2474 55.5173 31.3429 55.5566 28.9633C55.5943 26.5837 54.0856 24.6301 52.1853 24.599C50.2851 24.5685 48.7141 26.4731 48.6765 28.8522C48.6388 31.2324 50.1475 33.1859 52.0477 33.2164Z" fill="#1C1D29"/>
<path fill-rule="evenodd" clip-rule="evenodd" d="M53.0189 31.8612C53.7445 31.8733 54.3446 31.1457 54.3593 30.237C54.3739 29.3276 53.7967 28.5816 53.0727 28.5702C52.3471 28.5588 51.7454 29.2858 51.7307 30.195C51.7176 31.1038 52.2933 31.8498 53.0189 31.8612Z" fill="white"/>
<path d="M32.1397 53.3446C32.0642 53.0567 31.9692 52.7732 31.856 52.4946C31.7609 52.2617 31.4094 52.148 30.9432 52.1169C30.0741 52.0593 28.9561 52.3162 27.9648 52.7074C27.0716 53.06 26.3187 53.5105 25.8495 53.979C25.5749 54.2528 25.4225 54.4803 25.4602 54.6108C25.6187 55.1762 25.8389 55.7193 26.1226 56.2385C26.4093 56.7636 26.7593 57.2609 27.1727 57.729C27.3734 57.9564 27.7913 57.9809 28.2439 57.9193C28.8761 57.8351 29.5717 57.5711 30.0696 57.3676C31.0141 56.9807 31.7066 56.6847 32.0371 56.287C32.3403 55.9206 32.4384 55.3193 32.3056 54.219C32.2709 53.9328 32.2151 53.6406 32.1381 53.3451L32.1397 53.3446ZM33.7209 51.7518C33.8687 52.1138 33.9909 52.481 34.089 52.8549L34.092 52.8597C34.1856 53.2227 34.258 53.6026 34.3048 53.9965C34.5115 55.7068 34.264 56.7559 33.5987 57.5575C32.9604 58.328 32.0582 58.7199 30.8451 59.2166C30.2461 59.4616 29.3967 59.7809 28.5201 59.8979C27.4669 60.0395 26.4123 59.8854 25.6639 59.0409C25.1404 58.4483 24.7043 57.8285 24.3513 57.1837C23.9952 56.5328 23.7191 55.8499 23.5184 55.1399C23.2665 54.2397 23.6316 53.3511 24.4116 52.5714C25.0755 51.9097 26.0728 51.3002 27.218 50.8485C28.4507 50.361 29.8901 50.0437 31.0699 50.122C32.2905 50.2037 33.2848 50.6837 33.7209 51.7518Z" fill="#1C1D29"/>
<path fill-rule="evenodd" clip-rule="evenodd" d="M32.7903 52.1236C33.0519 52.763 33.2248 53.4246 33.3075 54.1082C33.6457 56.9182 32.6174 57.408 30.4584 58.2922C29.3624 58.7406 27.3688 59.4578 26.4201 58.3847C25.4819 57.3247 24.8504 56.152 24.4911 54.8749C24.1904 53.8078 25.6232 52.5562 27.5928 51.778C29.621 50.9765 32.2009 50.6826 32.7903 52.1236Z" fill="#384357"/>
<path fill-rule="evenodd" clip-rule="evenodd" d="M31.7458 57.7219C31.3758 57.9124 30.9462 58.0925 30.4598 58.2923C29.3634 58.7406 27.3703 59.4578 26.42 58.3847C25.4817 57.3248 24.8506 56.1521 24.4911 54.8754C24.2524 54.0288 25.1057 53.0667 26.4499 52.3163C25.9352 53.0286 25.1177 53.7241 25.2296 54.5392C25.4444 56.0781 26.3708 57.674 27.4986 58.1846C28.5145 58.6448 29.9422 58.099 31.7458 57.7219Z" fill="#697791"/>
<path d="M30.0853 71.0512H57.634C58.2822 71.0512 58.8111 71.5905 58.8111 72.2375V73.5908C58.8111 74.2373 58.2822 74.7771 57.634 74.7771H30.0853C29.4371 74.7771 28.9082 74.2373 28.9082 73.5908V72.2375C28.9082 71.591 29.4371 71.0512 30.0853 71.0512Z" fill="#1C1D29"/>
<path fill-rule="evenodd" clip-rule="evenodd" d="M30.087 71.909H57.6351C57.8169 71.909 57.964 72.0564 57.964 72.2376V73.5908C57.964 73.7722 57.8169 73.9197 57.6351 73.9197H30.087C29.9068 73.9197 29.7598 73.7722 29.7598 73.5908V72.2376C29.7598 72.0564 29.9068 71.909 30.087 71.909Z" fill="#697791"/>
<path fill-rule="evenodd" clip-rule="evenodd" d="M31.7852 71.9088H55.9359C56.1165 71.9088 56.2643 72.0563 56.2643 72.2375V73.5909C56.2643 73.7721 56.1165 73.9194 55.9359 73.9194H31.7852C31.6045 73.9194 31.4551 73.7721 31.4551 73.5909V72.2375C31.4551 72.0563 31.6045 71.9088 31.7852 71.9088Z" fill="#384357"/>
<path d="M27.2631 55.6746L30.4215 70.891H57.2966L60.4549 55.6746H27.2631ZM26.8043 53.8337H61.5844C62.5577 53.8337 62.5375 54.6755 62.4013 55.3361L58.9422 71.999C58.8279 72.5496 58.3908 72.7324 57.8983 72.7324H29.6752C29.2096 72.7324 28.823 72.3852 28.7641 71.9352L25.236 54.9416C25.1335 54.4448 25.4512 53.9583 25.947 53.8549C26.1891 53.8048 26.5639 53.8337 26.8043 53.8337Z" fill="#1C1D29"/>
<path fill-rule="evenodd" clip-rule="evenodd" d="M26.1348 54.7544H43.8583H61.5836L58.0429 71.8118H43.8583H29.6755L26.1348 54.7544Z" fill="#697791"/>
<path fill-rule="evenodd" clip-rule="evenodd" d="M38.5137 54.7538H43.3379L50.4336 71.8113H45.6094L38.5137 54.7538Z" fill="#8696B3"/>
<path fill-rule="evenodd" clip-rule="evenodd" d="M34.3203 54.7539H36.7334L43.8287 71.8113H41.4172L34.3203 54.7539Z" fill="#8696B3"/>
<path d="M57.0296 50.7234C57.7421 49.8167 58.8311 49.6295 60.0276 49.888C62.0745 50.3316 64.7231 52.2307 65.7492 54.0804C66.286 55.0456 66.3917 56.0007 65.8991 56.7958C65.0981 58.0914 64.0465 59.1355 62.7614 59.9529C61.8104 60.5592 60.7537 60.416 59.7805 59.9883C58.4511 59.4061 56.1161 57.6413 55.5451 56.3375C54.7765 54.5825 55.8911 52.1671 57.0296 50.7234ZM58.6164 51.9521C57.9841 52.7558 56.9819 54.6016 57.3961 55.5469C57.7114 56.2662 60.7775 58.8472 61.6757 58.2753C62.6949 57.6261 63.5437 56.7804 64.1811 55.7515C64.7044 54.9036 59.593 50.713 58.6164 51.9521Z" fill="#1C1D29"/>
<path fill-rule="evenodd" clip-rule="evenodd" d="M57.8193 51.3378C57.3927 51.8809 57.0425 52.4687 56.774 53.1025C55.6743 55.7097 56.5275 56.465 58.3598 57.9102C59.2895 58.6444 61.0061 59.8839 62.2163 59.1145C63.4094 58.3543 64.3391 57.401 65.0377 56.2734C65.6206 55.3304 64.589 53.7316 62.9097 52.4398C61.1812 51.1098 58.783 50.1157 57.8193 51.3378Z" fill="#384357"/>
<path fill-rule="evenodd" clip-rule="evenodd" d="M57.2812 57.0075C57.5837 57.2926 57.9472 57.5837 58.3618 57.9102C59.2911 58.6444 61.0087 59.884 62.2183 59.1145C63.4126 58.3543 64.3419 57.401 65.0402 56.2733C65.5023 55.5257 64.9484 54.3661 63.8628 53.2735C64.1618 54.1 64.7564 54.9941 64.4218 55.7462C63.7932 57.1664 62.4612 58.4452 61.2363 58.6241C60.132 58.7858 58.9105 57.8673 57.2812 57.0075Z" fill="#697791"/>
<path d="M69.4862 65.1937C70.1136 66.3789 70.3019 67.7877 69.958 69.1792C69.4671 71.1762 67.9738 73.3322 66.0675 74.1805C62.6833 75.6868 59.9698 73.0383 59.5515 69.8011C59.4496 69.017 59.491 66.6184 59.7468 65.5822C60.0165 64.4889 60.6681 63.6047 61.5858 63.0191C64.1887 61.3574 68.0551 62.4963 69.4862 65.1937ZM62.5295 64.8052C61.2557 65.6192 61.2937 68.2398 61.4527 69.4686C61.7103 71.4549 63.2226 73.2157 65.3778 72.2563C67.4087 71.352 68.8933 68.2856 67.8166 66.2581C66.9075 64.545 64.2095 63.7332 62.5295 64.8052Z" fill="#1C1D29"/>
<path fill-rule="evenodd" clip-rule="evenodd" d="M65.701 63.4761C62.9391 62.7949 60.7258 64.164 60.5809 66.443C60.5205 67.411 60.4015 68.8646 60.5015 69.6349C60.7827 71.8018 62.011 73.1442 63.4894 73.472C64.8661 73.7778 66.4618 73.2026 67.709 71.593C68.1835 70.9819 68.594 70.2548 68.9045 69.3574C69.7723 66.8484 68.4319 64.1498 65.701 63.4761Z" fill="#263042"/>
<path fill-rule="evenodd" clip-rule="evenodd" d="M67.8595 71.394C68.2718 70.8254 68.6289 70.1593 68.9067 69.3571C69.7744 66.8481 68.434 64.1495 65.7031 63.4758C67.932 65.3189 68.8308 67.5348 67.8595 71.394Z" fill="#384357"/>
<path d="M21.9174 64.5252C20.9995 64.8435 20.314 65.4518 19.9183 66.1985C19.224 67.5088 19.5329 68.8262 20.1919 70.0419C20.6832 70.9479 21.4261 71.8218 22.3763 72.2458C23.5355 72.7611 24.7652 72.4858 25.5508 71.4763C25.942 70.9741 26.223 70.2889 26.3333 69.4352C26.4937 68.1966 26.5319 65.5541 25.2477 64.7336C24.3048 64.1317 22.9485 64.1682 21.9174 64.5252ZM21.8188 62.3713C23.2942 62.0078 24.8917 62.0976 26.1995 62.9334C27.1247 63.524 27.7823 64.4147 28.0529 65.5161C28.3103 66.5604 28.353 68.9813 28.2515 69.7704C28.0882 71.0246 27.6513 72.0619 27.0379 72.8503C25.7243 74.5389 23.6296 75.0531 21.6806 74.1851C20.8333 73.808 20.0124 73.1665 19.2931 72.2414L19.2916 72.2426C18.6929 71.4699 18.234 70.5959 17.9148 69.6724C17.8545 69.5005 17.803 69.3236 17.7589 69.1435C17.4132 67.7407 17.6015 66.3198 18.2355 65.1259C18.8577 63.9526 19.9065 63.0064 21.2922 62.5264C21.4599 62.4687 21.6349 62.4165 21.8188 62.3713Z" fill="#1C1D29"/>
<path fill-rule="evenodd" clip-rule="evenodd" d="M22.0508 63.3944C24.8345 62.707 27.0673 64.0877 27.2109 66.3845C27.2724 67.3614 27.3925 68.8257 27.2914 69.6028C27.0101 71.7876 25.7707 73.1408 24.2806 73.4712C22.8917 73.7791 21.283 73.1996 20.026 71.577C19.5483 70.961 19.1337 70.228 18.8216 69.3236C17.9455 66.7937 19.2978 64.0735 22.0508 63.3944Z" fill="#263042"/>
<path fill-rule="evenodd" clip-rule="evenodd" d="M19.8768 71.3762C19.4614 70.8032 19.1019 70.1322 18.8212 69.3236C17.946 66.7944 19.2982 64.0735 22.0511 63.3943C19.8052 65.2522 18.8971 67.486 19.8768 71.3762Z" fill="#384357"/>
<path d="M18.2017 52.608C18.463 52.7566 18.6901 52.9676 18.8576 53.2267C19.2821 53.884 19.6541 55.7908 19.8586 56.5313C19.9963 57.0342 19.9111 57.4897 19.6853 57.8885C19.4752 58.2591 19.1444 58.5502 18.7781 58.7587C17.3598 59.5663 15.835 60.0016 14.1995 60.0179C13.7835 60.0222 13.3562 59.9411 12.9842 59.731C12.5881 59.5048 12.2829 59.1575 12.1437 58.6521C11.918 57.8303 11.3444 56.2762 11.3118 55.448C11.299 55.0893 11.387 54.7395 11.5602 54.4374C12.0401 53.5913 16.8033 51.8141 18.2017 52.608Z" fill="#1C1D29"/>
<path fill-rule="evenodd" clip-rule="evenodd" d="M12.9889 54.5772L17.0493 53.4585C17.486 53.3382 17.9425 53.5977 18.0626 54.0353L18.8286 56.8132C18.9487 57.2508 18.6463 57.6034 18.252 57.8282C16.9927 58.5448 15.643 58.9322 14.1916 58.9469C13.7379 58.9513 13.297 58.8081 13.1768 58.3701L12.4122 55.5922C12.2921 55.1541 12.5507 54.6981 12.9889 54.5772Z" fill="#697791"/>
<path fill-rule="evenodd" clip-rule="evenodd" d="M15.1094 53.6909L16.6245 53.2734C17.0632 53.1526 17.5189 53.4123 17.6402 53.8498L18.4034 56.6278C18.5247 57.0658 18.2228 57.4183 17.8278 57.6431C17.3651 57.9059 16.877 58.0714 16.3903 58.2439C16.0616 56.711 15.6342 55.2287 15.1094 53.6909Z" fill="#384357"/>
<path d="M14.1884 54.2056C14.4284 54.1877 14.7194 54.1322 15.019 54.0495C15.3158 53.9672 15.6012 53.8623 15.8312 53.7431C15.7645 50.9918 19.7445 46.0018 15.0616 43.5263C13.1348 42.5077 10.7381 43.1655 9.60782 45.031C6.85464 49.5759 12.858 51.8173 14.1884 54.2056ZM10.765 53.7833C7.60576 51.3906 5.50005 47.6914 7.78182 43.9269C9.49848 41.0923 13.1249 40.0835 16.0556 41.6328C19.9617 43.6978 20.0242 47.9499 18.5517 51.6345C18.1882 52.5443 17.8631 53.3583 18.0065 54.0293C18.2592 55.2276 16.3921 55.8903 15.5827 56.1141C14.7237 56.3501 12.8395 56.694 12.4547 55.5557C12.2091 54.8347 11.3515 54.2268 10.765 53.7833Z" fill="#1C1D29"/>
<path fill-rule="evenodd" clip-rule="evenodd" d="M13.4652 55.2127C12.6607 52.8386 8.99221 52.5855 8.05738 48.2649C7.47807 45.5909 9.08427 42.9 11.7528 42.1647C14.4142 41.4313 17.1635 42.9103 18.0431 45.4901C19.4538 49.6362 16.4439 51.8357 16.9595 54.2502C16.2216 54.9728 14.3151 55.4548 13.4652 55.2127Z" fill="#FAD920"/>
<path fill-rule="evenodd" clip-rule="evenodd" d="M10.7651 52.4316C9.64507 51.5371 8.51825 50.3959 8.05684 48.265C7.47905 45.591 9.08509 42.9001 11.7536 42.165C8.1075 44.5304 7.82682 48.7765 10.7651 52.4316Z" fill="white"/>
<path fill-rule="evenodd" clip-rule="evenodd" d="M10.3055 44.5424C9.45092 44.4955 8.70457 45.4457 8.63747 46.664C8.57173 47.8824 9.2099 48.9076 10.0658 48.9544C10.9217 49.0006 11.6681 48.0511 11.7338 46.8328C11.8009 45.6143 11.1614 44.5887 10.3055 44.5424Z" fill="white"/>
<path fill-rule="evenodd" clip-rule="evenodd" d="M10.5613 35.0074L11.3961 38.9901C11.6383 40.1509 10.4751 40.4986 10.0823 39.3733L8.73579 35.5108C8.27051 34.1803 10.2739 33.6301 10.5613 35.0074Z" fill="#FAD920"/>
<path fill-rule="evenodd" clip-rule="evenodd" d="M4.65135 37.9853L7.16342 40.8444C7.89672 41.6781 7.13517 42.5743 6.30095 41.8484L3.43636 39.3572C2.4501 38.499 3.78215 36.9966 4.65135 37.9853Z" fill="#FAD920"/>
<path fill-rule="evenodd" clip-rule="evenodd" d="M2.173 44.0086L5.58067 45.4354C6.57436 45.8512 6.27746 47.0266 5.23964 46.7562L1.67548 45.831C0.447757 45.5122 0.993416 43.5157 2.173 44.0086Z" fill="#FAD920"/>
<path fill-rule="evenodd" clip-rule="evenodd" d="M15.5114 34.9935L14.8157 38.7363C14.6119 39.8273 15.725 40.2078 16.0708 39.157L17.257 35.5503C17.6645 34.3079 15.7518 33.6989 15.5114 34.9935Z" fill="#FAD920"/>
<path fill-rule="evenodd" clip-rule="evenodd" d="M20.7234 38.8977L18.5261 41.8689C17.8848 42.7352 18.7404 43.5928 19.4939 42.8294L22.0823 40.2093C22.9739 39.3064 21.4841 37.8705 20.7234 38.8977Z" fill="#FAD920"/>
</svg>
