<svg width="93" height="109" fill="none" xmlns="http://www.w3.org/2000/svg"><path d="M78.598 43.965V33.414h-4.152a22.484 22.484 0 0 0-2.777-6.711l2.933-2.935-7.46-7.46-2.935 2.933a22.504 22.504 0 0 0-6.71-2.777v-4.153H46.944v4.152a22.485 22.485 0 0 0-6.711 2.776l-2.935-2.933-7.46 7.46 2.933 2.935a22.502 22.502 0 0 0-2.777 6.711H25.84v10.552h4.152a22.485 22.485 0 0 0 2.777 6.71l-2.934 2.936 7.46 7.46 2.94-2.94c.384.231.789.46 1.22.69l1.654-3.102 2.075.002v-4.89c-4.2-2.435-7.034-6.968-7.034-12.172 0-7.77 6.3-14.069 14.069-14.069 7.77 0 14.069 6.3 14.069 14.069 0 5.204-2.833 9.737-7.035 12.171v4.879l2.105-.002 1.673 3.095c.413-.223.802-.447 1.17-.668l2.94 2.94 7.46-7.46-2.934-2.935a22.504 22.504 0 0 0 2.777-6.71h4.154v-.003Z" fill="#CBCEFF"/><path d="M92.633 40.43c0-22.01-17.9-40.145-39.902-40.426C52.558.002 52.39 0 52.219 0c-18.998 0-35.603 13.533-39.6 32.355-.989 4.644-1.112 9.435-.37 14.252L.361 67.87l13.169 3.797v21.506h17.586V109h3.517V89.655H17.047V69.022L5.593 65.719l10.328-18.47-.103-.613c-.778-4.583-.697-9.143.242-13.55C19.745 15.731 35.134 3.282 52.687 3.521c20.088.256 36.431 16.816 36.431 36.911l.005 6.417a42.797 42.797 0 0 1-18.556 35.283l-.762.526V109h3.517V84.496A46.314 46.314 0 0 0 92.64 46.847l-.005-6.417Z" fill="#4700AB"/><path d="M68.046 38.656c0-8.728-7.099-15.827-15.827-15.827s-15.827 7.1-15.827 15.827c0 5.274 2.67 10.221 7.034 13.146v2.771a4.402 4.402 0 0 0-3.517 4.307c0 1.565.826 2.93 2.06 3.71a4.378 4.378 0 0 0-.302 1.566 4.4 4.4 0 0 0 4.397 4.396h12.31a4.4 4.4 0 0 0 4.397-4.396c0-.554-.115-1.078-.301-1.565a4.386 4.386 0 0 0 2.06-3.711 4.4 4.4 0 0 0-3.518-4.307v-2.771c4.363-2.925 7.034-7.872 7.034-13.146Zm-28.137 0c0-6.786 5.524-12.31 12.31-12.31 6.786 0 12.31 5.524 12.31 12.31 0 4.368-2.36 8.45-6.157 10.65l-.877.508v4.67h-3.517V43.608c2.041-.728 3.517-2.662 3.517-4.952a5.282 5.282 0 0 0-5.276-5.276 5.282 5.282 0 0 0-5.276 5.276c0 2.29 1.476 4.224 3.517 4.952v10.876h-3.517v-4.67l-.877-.508c-3.797-2.2-6.157-6.28-6.157-10.65Zm10.551 0a1.76 1.76 0 1 1 3.519.001 1.76 1.76 0 0 1-3.519-.001Zm-6.155 19.345h15.828c.483 0 .88.395.88.879s-.397.88-.88.88H44.305a.882.882 0 0 1-.879-.88c0-.484.396-.88.88-.88Zm14.07 7.034H46.063a.882.882 0 0 1-.88-.88c0-.483.396-.879.88-.879h12.31c.484 0 .88.396.88.88 0 .483-.396.88-.88.88ZM53.95 72.07h-3.517v3.517h3.517v-3.518ZM53.95 79.104h-3.517v3.517h3.517v-3.517ZM53.95 86.138h-3.517v3.517h3.517v-3.517ZM53.95 93.172h-3.517v3.518h3.517v-3.518Z" fill="#4700AB"/></svg>