<svg width="109" height="109" fill="none" xmlns="http://www.w3.org/2000/svg"><path d="M51.172 87.934a2.13 2.13 0 0 0-3.01 0l-6.021 6.023a2.13 2.13 0 0 0 3.011 3.01l6.02-6.022a2.13 2.13 0 0 0 0-3.011ZM21.065 57.828a2.129 2.129 0 0 0-3.01 0l-6.023 6.02a2.129 2.129 0 0 0 3.01 3.011l6.023-6.02a2.129 2.129 0 0 0 0-3.011ZM36.12 90.947a2.129 2.129 0 0 0-3.01 0l-14.422 14.419a2.128 2.128 0 1 0 3.01 3.011l14.422-14.42a2.129 2.129 0 0 0 0-3.01ZM19.089 90.947a2.129 2.129 0 0 0-3.01 0L1.656 105.366a2.128 2.128 0 1 0 3.01 3.011l14.422-14.42a2.129 2.129 0 0 0 0-3.01ZM18.053 72.88a2.129 2.129 0 0 0-3.01 0L.623 87.302a2.129 2.129 0 0 0 3.011 3.01l14.42-14.421a2.129 2.129 0 0 0 0-3.01Z" fill="#4700AB"/><path d="M59.843 70.53 39.005 49.69l-4.275 12.29c2.85 3.74 9.298 11.434 12.29 12.289 2.992.855 9.795-2.137 12.823-3.74Z" fill="#CBCEFF"/><path d="M108.376.624a2.122 2.122 0 0 0-1.582-.622c-.481.017-11.942.477-25.566 5.293-10.917 3.854-20.016 9.373-27.046 16.403a81.003 81.003 0 0 0-4.574 4.98c-6.95-4.09-12.52-2.808-16.041-.924-8.108 4.34-13.126 16.12-13.126 24.546a2.13 2.13 0 0 0 3.635 1.505c4.276-4.275 9.55-4.008 11.272-3.781l.745.745c-1.467 3.492-2.649 6.963-3.516 10.34-.313 1.222-.207 2.515.258 3.698-2.05.944-4.027 2.331-5.749 4.053-5.48 5.48-6.593 18.836-6.637 19.402a2.13 2.13 0 0 0 2.29 2.29c.565-.045 13.921-1.158 19.401-6.638 1.721-1.72 3.108-3.698 4.053-5.747 1.252.492 2.54.553 3.7.256 3.375-.867 6.846-2.049 10.338-3.516l.746.746c.226 1.722.493 6.996-3.782 11.271a2.129 2.129 0 0 0 1.505 3.634c8.426 0 20.207-5.018 24.546-13.125 1.884-3.52 3.167-9.09-.925-16.04a81.025 81.025 0 0 0 4.981-4.575c7.03-7.03 12.548-16.13 16.403-27.046 4.815-13.624 5.276-25.086 5.293-25.567a2.126 2.126 0 0 0-.622-1.581ZM25.201 45.72c1.323-6.4 5.164-13.423 10.375-16.213 3.483-1.863 7.29-1.68 11.337.535a86.084 86.084 0 0 0-8.944 14.58c-.032-.02-.415-.501-1.127-.662-.293-.066-5.926-1.278-11.64 1.76ZM39.13 78.903c-2.927 2.928-9.794 4.472-14.134 5.102.63-4.34 2.175-11.207 5.102-14.134 1.64-1.64 3.54-2.882 5.45-3.582l7.164 7.164c-.7 1.91-1.942 3.811-3.582 5.45Zm9.706-6.605c-.616.158-1.33-.074-1.86-.603l-4.17-4.17-5.498-5.498c-.53-.532-.763-1.245-.605-1.86a69.106 69.106 0 0 1 2.658-8.132L56.965 69.64a69.087 69.087 0 0 1-8.13 2.658Zm30.657 1.126c-2.79 5.211-9.812 9.053-16.212 10.375 2.04-3.84 2.49-8.728 1.745-11.692-.173-.689-.622-1.035-.648-1.076a86.111 86.111 0 0 0 14.58-8.944c2.216 4.048 2.399 7.855.535 11.337Zm4.8-21.617a77.283 77.283 0 0 1-6.14 5.508 81.792 81.792 0 0 1-16.971 10.52L41.165 47.82a81.782 81.782 0 0 1 10.52-16.971 77.254 77.254 0 0 1 5.509-6.14C63.5 18.4 71.64 13.382 81.394 9.769l17.838 17.838c-3.613 9.753-8.633 17.893-14.94 24.2Zm16.471-28.69-14.88-14.88c8.107-2.518 15.16-3.461 18.68-3.8-.339 3.521-1.282 10.574-3.8 18.68Z" fill="#4700AB"/><circle cx="78.01" cy="30.99" r="9.186" fill="#CBCEFF" stroke="#4700AB" stroke-width="3"/></svg>