<svg width="32" height="32" viewBox="0 0 32 32" fill="none" xmlns="http://www.w3.org/2000/svg">
    <g id="icon1">
        <path id="icon" fill-rule="evenodd" clip-rule="evenodd"
              d="M17.5421 3.04034L28.277 9.00416C29.6855 9.78664 29.6855 11.5467 28.277 12.3292L26.4695 13.3334L28.277 14.3375C29.6855 15.12 29.6855 16.8801 28.277 17.6625L26.4695 18.6667L28.277 19.6708C29.6855 20.4533 29.6855 22.2134 28.277 22.9959L17.5421 28.9597C16.6453 29.4579 15.3547 29.4579 14.4579 28.9597L3.72303 22.9959C2.31455 22.2134 2.31455 20.4533 3.72303 19.6708L5.53048 18.6667L3.72303 17.6625C2.31455 16.8801 2.31455 15.12 3.72303 14.3375L5.53048 13.3334L3.72303 12.3292C2.31455 11.5467 2.31455 9.78664 3.72303 9.00416L14.4579 3.04034C15.3547 2.54214 16.6453 2.54214 17.5421 3.04034ZM17.5421 18.293L23.724 14.8586L25.7785 16L23.724 17.1414L20.9785 18.6667L16.2471 21.2953C16.1557 21.346 15.8443 21.346 15.753 21.2953L11.0215 18.6667L8.27598 17.1414L6.22148 16L8.27598 14.8586L14.4579 18.293C15.3547 18.7912 16.6453 18.7912 17.5421 18.293ZM8.27598 20.192L6.22148 21.3334L15.753 26.6286C15.8443 26.6794 16.1557 26.6794 16.2471 26.6286L25.7785 21.3334L23.724 20.192L17.5421 23.6264C16.6453 24.1246 15.3547 24.1246 14.4579 23.6264L8.27598 20.192ZM15.753 5.37142C15.8443 5.32066 16.1557 5.32066 16.2471 5.37142L25.7785 10.6667L16.2471 15.962C16.1557 16.0127 15.8443 16.0127 15.753 15.962L6.22148 10.6667L15.753 5.37142Z"
              fill="#7838d6"/>
    </g>
</svg>
