<svg width="32" height="32" viewBox="0 0 32 32" fill="none" xmlns="http://www.w3.org/2000/svg">
    <g id="icon4">
        <path id="icon" fill-rule="evenodd" clip-rule="evenodd"
              d="M9.33337 9.33335V13.3334H8.00004C6.57557 13.3334 5.33337 14.3685 5.33337 15.7778V26.8889C5.33337 28.2982 6.57557 29.3334 8.00004 29.3334H24C25.4245 29.3334 26.6667 28.2982 26.6667 26.8889V15.7778C26.6667 14.3685 25.4245 13.3334 24 13.3334H22.6667V9.33335C22.6667 5.65146 19.6819 2.66669 16 2.66669C12.3181 2.66669 9.33337 5.65146 9.33337 9.33335ZM20 9.33335V13.3334H12V9.33335C12 7.12421 13.7909 5.33335 16 5.33335C18.2092 5.33335 20 7.12421 20 9.33335ZM8.00004 26.6667V16H24V26.6667H8.00004ZM17.3334 21.3334C17.3334 22.0697 16.7364 22.6667 16 22.6667C15.2637 22.6667 14.6667 22.0697 14.6667 21.3334C14.6667 20.597 15.2637 20 16 20C16.7364 20 17.3334 20.597 17.3334 21.3334Z"
              fill="#7838d6"/>
    </g>
</svg>
