<svg width="36" height="36" viewBox="0 0 36 36" fill="none" xmlns="http://www.w3.org/2000/svg">
    <path fill-rule="evenodd" clip-rule="evenodd" d="M15.8231 32.2916L16.1982 31.6579C16.7993 30.6423 17.0999 30.1345 17.5787 29.8513C18.0575 29.5681 18.682 29.5481 19.9311 29.5081C21.1023 29.4707 21.8895 29.3685 22.5625 29.0897C23.9795 28.5027 25.1054 27.3769 25.6923 25.9599C26.1325 24.8971 26.1325 23.5498 26.1325 20.8552V19.6986C26.1325 15.9124 26.1325 14.0193 25.2803 12.6287C24.8035 11.8505 24.1492 11.1962 23.3711 10.7194C21.9804 9.86719 20.0873 9.86719 16.3012 9.86719H12.8313C9.04519 9.86719 7.15212 9.86719 5.76145 10.7194C4.9833 11.1962 4.32905 11.8505 3.8522 12.6287C3 14.0193 3 15.9124 3 19.6986V20.8552C3 23.5498 3 24.8971 3.44021 25.9599C4.02717 27.3769 5.15299 28.5027 6.57002 29.0897C7.24307 29.3685 8.03022 29.4707 9.20141 29.5081C10.4505 29.5481 11.075 29.5681 11.5538 29.8513C12.0326 30.1345 12.3332 30.6423 12.9343 31.6579L13.3094 32.2916C13.8682 33.2358 15.2643 33.2358 15.8231 32.2916ZM19.6265 21.4335C20.425 21.4335 21.0723 20.7862 21.0723 19.9877C21.0723 19.1892 20.425 18.5419 19.6265 18.5419C18.828 18.5419 18.1807 19.1892 18.1807 19.9877C18.1807 20.7862 18.828 21.4335 19.6265 21.4335ZM16.012 19.9877C16.012 20.7862 15.3647 21.4335 14.5663 21.4335C13.7678 21.4335 13.1205 20.7862 13.1205 19.9877C13.1205 19.1892 13.7678 18.5419 14.5663 18.5419C15.3647 18.5419 16.012 19.1892 16.012 19.9877ZM9.50602 21.4335C10.3045 21.4335 10.9518 20.7862 10.9518 19.9877C10.9518 19.1892 10.3045 18.5419 9.50602 18.5419C8.70754 18.5419 8.06024 19.1892 8.06024 19.9877C8.06024 20.7862 8.70754 21.4335 9.50602 21.4335Z" fill="#4700AB"/>
    <path d="M22.7545 3C24.482 2.99999 25.8558 2.99998 26.9576 3.10474C28.0873 3.21215 29.0425 3.43731 29.8934 3.95873C30.7688 4.49519 31.5048 5.23123 32.0413 6.10665C32.5627 6.95754 32.7878 7.91271 32.8953 9.04243C33 10.1442 33 11.5181 33 13.2456V14.4255C33 15.655 33 16.6329 32.9459 17.4259C32.8905 18.2372 32.775 18.9339 32.5048 19.5862C31.8444 21.1804 30.5779 22.4469 28.9837 23.1072C28.9439 23.1238 28.9038 23.1397 28.8635 23.1551C28.6711 23.2287 28.5062 23.2917 28.3615 23.3387C28.3826 22.6354 28.3825 21.8344 28.3825 20.9305V19.5921C28.3826 17.7897 28.3826 16.2798 28.2659 15.0523C28.1437 13.7673 27.8779 12.5613 27.1988 11.453C26.5364 10.3721 25.6276 9.46334 24.5467 8.80096C23.4384 8.1218 22.2325 7.856 20.9474 7.73382C19.7199 7.6171 18.2101 7.61714 16.4076 7.61719H12.7249C11.5008 7.61716 10.4116 7.61713 9.45414 7.65368C9.49874 7.4991 9.55986 7.32193 9.63159 7.11395C9.75359 6.76024 9.90779 6.42571 10.1033 6.10665C10.6398 5.23123 11.3758 4.49519 12.2512 3.95873C13.1021 3.43731 14.0573 3.21215 15.187 3.10474C16.2888 2.99998 17.6626 2.99999 19.3901 3H22.7545Z" fill="#4700AB"/>
</svg>
