<svg width="36" height="36" viewBox="0 0 36 36" fill="none" xmlns="http://www.w3.org/2000/svg">
    <path fill-rule="evenodd" clip-rule="evenodd" d="M18 33C26.2843 33 33 26.2843 33 18C33 9.71573 26.2843 3 18 3C9.71573 3 3 9.71573 3 18C3 26.2843 9.71573 33 18 33ZM19.125 9C19.125 8.37868 18.6213 7.875 18 7.875C17.3787 7.875 16.875 8.37868 16.875 9V9.4751C14.4294 9.913 12.375 11.7504 12.375 14.25C12.375 17.1257 15.0942 19.125 18 19.125C20.0647 19.125 21.375 20.4836 21.375 21.75C21.375 23.0164 20.0647 24.375 18 24.375C15.9353 24.375 14.625 23.0164 14.625 21.75C14.625 21.1287 14.1213 20.625 13.5 20.625C12.8787 20.625 12.375 21.1287 12.375 21.75C12.375 24.2496 14.4294 26.087 16.875 26.5249V27C16.875 27.6213 17.3787 28.125 18 28.125C18.6213 28.125 19.125 27.6213 19.125 27V26.5249C21.5706 26.087 23.625 24.2496 23.625 21.75C23.625 18.8743 20.9058 16.875 18 16.875C15.9353 16.875 14.625 15.5164 14.625 14.25C14.625 12.9836 15.9353 11.625 18 11.625C20.0647 11.625 21.375 12.9836 21.375 14.25C21.375 14.8713 21.8787 15.375 22.5 15.375C23.1213 15.375 23.625 14.8713 23.625 14.25C23.625 11.7504 21.5706 9.913 19.125 9.4751V9Z" fill="#4700AB"/>
</svg>
