<svg width="29" height="29" viewBox="0 0 29 29" fill="none" xmlns="http://www.w3.org/2000/svg">
<g clip-path="url(#clip0_139_10035)">
<path d="M14.5 2.61113C18.3742 2.61113 18.833 2.62812 20.3566 2.69609C21.7727 2.7584 22.5373 2.99629 23.0471 3.19453C23.7211 3.45508 24.2082 3.77227 24.7123 4.27637C25.2221 4.78613 25.5336 5.26758 25.7941 5.9416C25.9924 6.45137 26.2303 7.22168 26.2926 8.63203C26.3605 10.1613 26.3775 10.6201 26.3775 14.4887C26.3775 18.3629 26.3605 18.8217 26.2926 20.3453C26.2303 21.7613 25.9924 22.526 25.7941 23.0357C25.5336 23.7098 25.2164 24.1969 24.7123 24.701C24.2025 25.2107 23.7211 25.5223 23.0471 25.7828C22.5373 25.9811 21.767 26.2189 20.3566 26.2812C18.8273 26.3492 18.3686 26.3662 14.5 26.3662C10.6258 26.3662 10.167 26.3492 8.64336 26.2812C7.22734 26.2189 6.4627 25.9811 5.95293 25.7828C5.27891 25.5223 4.7918 25.2051 4.2877 24.701C3.77793 24.1912 3.46641 23.7098 3.20586 23.0357C3.00762 22.526 2.76973 21.7557 2.70742 20.3453C2.63945 18.816 2.62246 18.3572 2.62246 14.4887C2.62246 10.6145 2.63945 10.1557 2.70742 8.63203C2.76973 7.21602 3.00762 6.45137 3.20586 5.9416C3.46641 5.26758 3.78359 4.78047 4.2877 4.27637C4.79746 3.7666 5.27891 3.45508 5.95293 3.19453C6.4627 2.99629 7.23301 2.7584 8.64336 2.69609C10.167 2.62812 10.6258 2.61113 14.5 2.61113ZM14.5 0C10.5635 0 10.0707 0.0169922 8.52442 0.0849609C6.98379 0.15293 5.92461 0.402148 5.00703 0.758984C4.04981 1.13281 3.23984 1.62559 2.43555 2.43555C1.62559 3.23984 1.13281 4.04981 0.758984 5.00137C0.402148 5.92461 0.15293 6.97812 0.084961 8.51875C0.0169922 10.0707 0 10.5635 0 14.5C0 18.4365 0.0169922 18.9293 0.084961 20.4756C0.15293 22.0162 0.402148 23.0754 0.758984 23.993C1.13281 24.9502 1.62559 25.7602 2.43555 26.5645C3.23984 27.3688 4.04981 27.8672 5.00137 28.2354C5.92461 28.5922 6.97813 28.8414 8.51875 28.9094C10.065 28.9773 10.5578 28.9943 14.4943 28.9943C18.4309 28.9943 18.9236 28.9773 20.4699 28.9094C22.0105 28.8414 23.0697 28.5922 23.9873 28.2354C24.9389 27.8672 25.7488 27.3688 26.5531 26.5645C27.3574 25.7602 27.8559 24.9502 28.224 23.9986C28.5809 23.0754 28.8301 22.0219 28.8981 20.4813C28.966 18.935 28.983 18.4422 28.983 14.5057C28.983 10.5691 28.966 10.0764 28.8981 8.53008C28.8301 6.98945 28.5809 5.93027 28.224 5.0127C27.8672 4.0498 27.3744 3.23984 26.5645 2.43555C25.7602 1.63125 24.9502 1.13281 23.9986 0.764648C23.0754 0.407812 22.0219 0.158594 20.4813 0.090625C18.9293 0.0169922 18.4365 0 14.5 0Z" fill="#FCFCFC"/>
<path d="M14.5 7.05176C10.3879 7.05176 7.05176 10.3879 7.05176 14.5C7.05176 18.6121 10.3879 21.9482 14.5 21.9482C18.6121 21.9482 21.9482 18.6121 21.9482 14.5C21.9482 10.3879 18.6121 7.05176 14.5 7.05176ZM14.5 19.3314C11.8322 19.3314 9.66855 17.1678 9.66855 14.5C9.66855 11.8322 11.8322 9.66855 14.5 9.66855C17.1678 9.66855 19.3314 11.8322 19.3314 14.5C19.3314 17.1678 17.1678 19.3314 14.5 19.3314Z" fill="#FCFCFC"/>
<path d="M23.9816 6.75736C23.9816 7.72025 23.2 8.49623 22.2428 8.49623C21.2799 8.49623 20.5039 7.71459 20.5039 6.75736C20.5039 5.79447 21.2855 5.01849 22.2428 5.01849C23.2 5.01849 23.9816 5.80014 23.9816 6.75736Z" fill="#FCFCFC"/>
</g>
<defs>
<clipPath id="clip0_139_10035">
<rect width="29" height="29" fill="white"/>
</clipPath>
</defs>
</svg>
