<svg width="36" height="36" viewBox="0 0 36 36" fill="none" xmlns="http://www.w3.org/2000/svg">
    <path d="M20.7965 8.67504C20.3259 8.62639 19.717 8.625 18.7918 8.625H18C17.3787 8.625 16.875 8.12132 16.875 7.5C16.875 6.87868 17.3787 6.375 18 6.375L18.8471 6.375H18.8472C19.7021 6.37497 20.428 6.37495 21.0279 6.43697C21.6666 6.50301 22.2569 6.64642 22.8146 6.99107C23.3722 7.33572 23.7645 7.79956 24.1092 8.34131C24.4131 8.81899 24.7178 9.42045 25.0703 10.125L26.8024 10.125C27.2281 10.125 27.619 10.1249 27.9448 10.1542C28.2968 10.1858 28.6805 10.2585 29.0519 10.4706C29.4592 10.7032 29.7968 11.0408 30.0294 11.4481C30.2416 11.8195 30.3142 12.2032 30.3458 12.5553C30.3751 12.881 30.3751 13.2719 30.375 13.6977V13.7411L30.3752 13.8379C30.3761 14.2275 30.377 14.6447 30.2506 15.0407C30.1658 15.3059 30.0395 15.5559 29.8762 15.7814C29.6324 16.1181 29.296 16.3648 28.9817 16.5952L28.9037 16.6524L28.4874 16.9591L29.218 18.4204C31.9856 18.773 34.125 21.1366 34.125 24C34.125 27.1066 31.6066 29.625 28.5 29.625C25.7787 29.625 23.5087 27.6925 22.9875 25.125H15.2625C14.7413 27.6925 12.4714 29.625 9.75002 29.625C7.02396 29.625 4.75082 27.6858 4.23484 25.1116C2.97559 24.9841 1.98286 23.9734 1.88312 22.706C1.87488 22.6013 1.87495 22.488 1.87501 22.3789L1.87502 22.35L1.87502 22.2929C1.87499 21.7903 1.87497 21.4707 1.89699 21.191C2.17197 17.6971 4.94707 14.9219 8.441 14.647C8.72072 14.625 9.04029 14.625 9.54284 14.625H9.54286L9.60002 14.625L10.578 14.625C11.9257 14.625 13.0496 14.6249 13.9417 14.7449C14.8834 14.8715 15.7336 15.15 16.4168 15.8332C17.1 16.5164 17.3785 17.3666 17.5052 18.3083C17.6251 19.2004 17.6251 20.3243 17.625 21.672V21.672L17.625 22.875H22.9875C23.3959 20.8634 24.8777 19.2416 26.809 18.6336L23.1522 11.3198C22.7384 10.4923 22.4648 9.94831 22.2109 9.54918C21.9709 9.17205 21.799 9.00843 21.6317 8.90503C21.4644 8.80164 21.2411 8.72102 20.7965 8.67504Z" fill="#4700AB"/>
</svg>
