<svg width="48" height="48" viewBox="0 0 48 48" fill="none" xmlns="http://www.w3.org/2000/svg">
<circle cx="24" cy="24" r="24" fill="#4E4B66"/>
<path d="M16.3776 20.136L13.2996 30H11.6076L9.23156 22.17L6.85556 30H5.16356L2.06756 20.136H3.74156L6.00956 28.416L8.45756 20.136H10.1316L12.5256 28.434L14.7576 20.136H16.3776ZM31.1432 20.136L28.0652 30H26.3732L23.9972 22.17L21.6212 30H19.9292L16.8332 20.136H18.5072L20.7752 28.416L23.2232 20.136H24.8972L27.2912 28.434L29.5232 20.136H31.1432ZM45.9088 20.136L42.8308 30H41.1388L38.7628 22.17L36.3868 30H34.6948L31.5988 20.136H33.2728L35.5408 28.416L37.9888 20.136H39.6628L42.0568 28.434L44.2888 20.136H45.9088Z" fill="white"/>
</svg>
