<svg width="48" height="46" viewBox="0 0 48 46" fill="none" xmlns="http://www.w3.org/2000/svg">
<path fill-rule="evenodd" clip-rule="evenodd" d="M24.0002 0.125C11.0576 0.125 0.5625 10.6182 0.5625 23.5627C0.5625 33.9181 7.27811 42.7035 16.5906 45.8027C17.762 46.0196 18.192 45.2942 18.192 44.6752C18.192 44.1163 18.1703 42.27 18.1602 40.3116C11.6398 41.7294 10.2639 37.5462 10.2639 37.5462C9.19775 34.8371 7.66157 34.1168 7.66157 34.1168C5.53507 32.6621 7.82187 32.692 7.82187 32.692C10.1754 32.8574 11.4147 35.1073 11.4147 35.1073C13.5051 38.6904 16.8976 37.6545 18.2351 37.0556C18.4454 35.5408 19.0528 34.5069 19.7231 33.9216C14.5173 33.3289 9.04483 31.3192 9.04483 22.3386C9.04483 19.7797 9.9604 17.6889 11.4597 16.0476C11.2164 15.4572 10.4141 13.0734 11.6867 9.84504C11.6867 9.84504 13.6549 9.21512 18.1338 12.2475C20.0034 11.7282 22.0084 11.4678 24.0002 11.4588C25.992 11.4678 27.9986 11.7282 29.8716 12.2475C34.3451 9.21512 36.3105 9.84504 36.3105 9.84504C37.5863 13.0734 36.7836 15.4572 36.5403 16.0476C38.0431 17.6889 38.9525 19.7797 38.9525 22.3386C38.9525 31.3406 33.4695 33.3227 28.2505 33.9029C29.0911 34.6303 29.8402 36.0566 29.8402 38.2433C29.8402 41.3793 29.813 43.9032 29.813 44.6752C29.813 45.2989 30.2349 46.0297 31.423 45.7995C40.7304 42.6969 47.4375 33.9146 47.4375 23.5627C47.4375 10.6182 36.9439 0.125 24.0002 0.125ZM9.34068 33.5125C9.28906 33.6289 9.10587 33.6639 8.93898 33.5839C8.76898 33.5074 8.6735 33.3487 8.72862 33.2319C8.77907 33.1119 8.96265 33.0786 9.13226 33.1589C9.30264 33.2354 9.39967 33.3957 9.34068 33.5125ZM10.4936 34.5412C10.3818 34.6448 10.1633 34.5967 10.015 34.4329C9.8617 34.2695 9.83298 34.051 9.94631 33.9458C10.0616 33.8422 10.2735 33.8907 10.4272 34.0541C10.5805 34.2194 10.6104 34.4364 10.4936 34.5412ZM11.2845 35.8574C11.1409 35.9571 10.9061 35.8636 10.7609 35.6552C10.6173 35.4467 10.6173 35.1968 10.764 35.0966C10.9095 34.9965 11.1409 35.0866 11.288 35.2934C11.4312 35.5053 11.4312 35.7553 11.2845 35.8574ZM12.6221 37.3817C12.4936 37.5233 12.22 37.4853 12.0197 37.292C11.8148 37.103 11.7577 36.8348 11.8866 36.6932C12.0166 36.5511 12.2918 36.5911 12.4936 36.7828C12.697 36.9714 12.7591 37.2416 12.6221 37.3817ZM14.3508 37.8963C14.2941 38.0799 14.0306 38.1633 13.7651 38.0853C13.5 38.005 13.3266 37.7899 13.3801 37.6044C13.4352 37.4197 13.6999 37.3327 13.9673 37.4162C14.232 37.4961 14.4059 37.7096 14.3508 37.8963ZM16.3182 38.1146C16.3248 38.3078 16.0997 38.4681 15.821 38.4716C15.5408 38.4778 15.3141 38.3214 15.311 38.1312C15.311 37.936 15.5311 37.7773 15.8113 37.7726C16.09 37.7672 16.3182 37.9224 16.3182 38.1146ZM18.2509 38.0405C18.2843 38.2291 18.0906 38.4228 17.8139 38.4744C17.5418 38.5241 17.2899 38.4076 17.2554 38.2206C17.2216 38.0273 17.4188 37.8336 17.6904 37.7835C17.9676 37.7354 18.2156 37.8487 18.2509 38.0405Z" fill="#4E4B66"/>
</svg>
