<svg width="36" height="36" viewBox="0 0 36 36" fill="none" xmlns="http://www.w3.org/2000/svg">
    <path fill-rule="evenodd" clip-rule="evenodd" d="M18 28.4651C23.799 28.4651 28.5 23.7797 28.5 18C28.5 12.2203 23.799 7.53489 18 7.53489C12.201 7.53489 7.5 12.2203 7.5 18C7.5 23.7797 12.201 28.4651 18 28.4651ZM18 12.6601C18.5799 12.6601 19.05 13.1286 19.05 13.7066V17.5545L21.5278 19.929C21.9458 20.3296 21.9588 20.9921 21.5569 21.4087C21.1549 21.8253 20.4902 21.8383 20.0722 21.4377L17.2722 18.7544C17.0664 18.5571 16.95 18.2847 16.95 18V13.7066C16.95 13.1286 17.4201 12.6601 18 12.6601Z" fill="#4700AB"/>
    <path d="M14.7877 3.11151C15.6204 2.99993 16.6693 2.99996 17.9272 3H18.0728C19.3307 2.99996 20.3796 2.99993 21.2123 3.11151C22.0912 3.22928 22.8847 3.48836 23.5224 4.1239C24.16 4.75943 24.42 5.55032 24.5381 6.42631C24.5748 6.69797 24.5994 6.99272 24.616 7.3103C22.6931 6.12559 20.4267 5.44186 18 5.44186C15.5733 5.44186 13.3069 6.12559 11.384 7.3103C11.4006 6.99272 11.4252 6.69797 11.4619 6.42631C11.58 5.55032 11.84 4.75943 12.4776 4.1239C13.1153 3.48836 13.9088 3.22928 14.7877 3.11151Z" fill="#4700AB"/>
    <path d="M23.5224 31.8761C24.16 31.2406 24.42 30.4497 24.5381 29.5737C24.5748 29.302 24.5994 29.0073 24.616 28.6897C22.6931 29.8744 20.4267 30.5581 18 30.5581C15.5733 30.5581 13.3069 29.8744 11.384 28.6897C11.4006 29.0073 11.4252 29.302 11.4619 29.5737C11.58 30.4497 11.84 31.2406 12.4776 31.8761C13.1153 32.5116 13.9088 32.7707 14.7877 32.8885C15.6204 33.0001 16.6693 33 17.9272 33H18.0728C19.3307 33 20.3796 33.0001 21.2123 32.8885C22.0912 32.7707 22.8847 32.5116 23.5224 31.8761Z" fill="#4700AB"/>
</svg>
