<svg width="29" height="29" viewBox="0 0 29 29" fill="none" xmlns="http://www.w3.org/2000/svg">
<path d="M28.7111 8.69978C28.7111 8.69978 28.4279 6.70037 27.5557 5.82244C26.4512 4.66697 25.2164 4.66131 24.65 4.59334C20.5945 4.29881 14.5057 4.29881 14.5057 4.29881H14.4943C14.4943 4.29881 8.40547 4.29881 4.35 4.59334C3.78359 4.66131 2.54883 4.66697 1.44434 5.82244C0.57207 6.70037 0.294531 8.69978 0.294531 8.69978C0.294531 8.69978 0 11.0504 0 13.3953V15.5929C0 17.9379 0.288867 20.2885 0.288867 20.2885C0.288867 20.2885 0.57207 22.2879 1.43867 23.1658C2.54316 24.3213 3.99316 24.2816 4.63887 24.4062C6.96113 24.6271 14.5 24.6951 14.5 24.6951C14.5 24.6951 20.5945 24.6838 24.65 24.3949C25.2164 24.3269 26.4512 24.3213 27.5557 23.1658C28.4279 22.2879 28.7111 20.2885 28.7111 20.2885C28.7111 20.2885 29 17.9435 29 15.5929V13.3953C29 11.0504 28.7111 8.69978 28.7111 8.69978ZM11.5037 18.2607V10.1101L19.3371 14.1996L11.5037 18.2607Z" fill="#FCFCFC"/>
</svg>
