<svg width="36" height="36" viewBox="0 0 36 36" fill="none" xmlns="http://www.w3.org/2000/svg">
    <path fill-rule="evenodd" clip-rule="evenodd" d="M5.06627 7.62361C4.5 8.43042 4.5 10.8286 4.5 15.625V17.987C4.5 26.4442 10.8584 30.5482 14.8478 32.2909C15.93 32.7636 16.4711 33 18 33C19.5289 33 20.07 32.7636 21.1522 32.2909C25.1416 30.5482 31.5 26.4442 31.5 17.987V15.625C31.5 10.8286 31.5 8.43042 30.9337 7.62361C30.3675 6.81681 28.1125 6.04494 23.6026 4.50119L22.7434 4.20708C20.3925 3.40236 19.2171 3 18 3C16.7829 3 15.6075 3.40236 13.2566 4.20708L12.3974 4.50119C7.88749 6.04494 5.63255 6.81681 5.06627 7.62361ZM22.5892 15.7493C23.003 15.2858 22.9627 14.5746 22.4993 14.1608C22.0358 13.747 21.3246 13.7873 20.9108 14.2507L16.3929 19.3109L15.0892 17.8507C14.6754 17.3873 13.9642 17.347 13.5007 17.7608C13.0373 18.1746 12.997 18.8858 13.4108 19.3493L15.5537 21.7493C15.7671 21.9883 16.0724 22.125 16.3929 22.125C16.7133 22.125 17.0186 21.9883 17.232 21.7493L22.5892 15.7493Z" fill="#4700AB"/>
</svg>
